<?xml version="1.0" encoding="UTF-8"?><svg id="Capa_1" xmlns="http://www.w3.org/2000/svg" xmlns:xlink="http://www.w3.org/1999/xlink" viewBox="0 0 406.92 105.91"><defs><style>.cls-1{fill:url(#Degradado_sin_nombre_36);}.cls-1,.cls-2,.cls-3,.cls-4,.cls-5,.cls-6,.cls-7,.cls-8,.cls-9,.cls-10{stroke-width:0px;}.cls-2{fill:url(#Degradado_sin_nombre_36-3);}.cls-3{fill:url(#Degradado_sin_nombre_36-7);}.cls-4{fill:url(#Degradado_sin_nombre_36-5);}.cls-5{fill:url(#Degradado_sin_nombre_36-8);}.cls-6{fill:url(#Degradado_sin_nombre_36-2);}.cls-7{fill:#001047;}.cls-8{fill:url(#Degradado_sin_nombre_36-9);}.cls-9{fill:url(#Degradado_sin_nombre_36-6);}.cls-10{fill:url(#Degradado_sin_nombre_36-4);}</style><linearGradient id="Degradado_sin_nombre_36" x1="-11.68" y1="55.05" x2="82.7" y2="51.99" gradientUnits="userSpaceOnUse"><stop offset=".14" stop-color="#c79d2a"/><stop offset=".28" stop-color="#fbb03b"/><stop offset=".42" stop-color="#bf9534"/><stop offset=".57" stop-color="#fbb03b"/><stop offset="1" stop-color="#bf9534"/></linearGradient><linearGradient id="Degradado_sin_nombre_36-2" x1="-12.25" y1="37.67" x2="82.14" y2="34.61" xlink:href="#Degradado_sin_nombre_36"/><linearGradient id="Degradado_sin_nombre_36-3" x1="-12.21" y1="38.82" x2="82.17" y2="35.75" xlink:href="#Degradado_sin_nombre_36"/><linearGradient id="Degradado_sin_nombre_36-4" x1="-12.69" y1="24.13" x2="81.7" y2="21.07" xlink:href="#Degradado_sin_nombre_36"/><linearGradient id="Degradado_sin_nombre_36-5" x1="-12.5" y1="29.92" x2="81.88" y2="26.86" xlink:href="#Degradado_sin_nombre_36"/><linearGradient id="Degradado_sin_nombre_36-6" x1="-12.65" y1="25.27" x2="81.73" y2="22.21" xlink:href="#Degradado_sin_nombre_36"/><linearGradient id="Degradado_sin_nombre_36-7" x1="-12.46" y1="31.06" x2="81.92" y2="28" xlink:href="#Degradado_sin_nombre_36"/><linearGradient id="Degradado_sin_nombre_36-8" x1="-12.93" y1="16.67" x2="81.46" y2="13.61" xlink:href="#Degradado_sin_nombre_36"/><linearGradient id="Degradado_sin_nombre_36-9" x1="-11.68" y1="55.05" x2="82.7" y2="51.99" xlink:href="#Degradado_sin_nombre_36"/></defs><path class="cls-1" d="m0,0v105.91h105.91V0H0Zm99.55,99.55H6.35V6.35h93.2v93.2Z"/><path class="cls-6" d="m46.37,39.19c3.66,0,6.62-2.97,6.62-6.62h-13.25c0,3.66,2.97,6.62,6.62,6.62Z"/><path class="cls-2" d="m81.77,39.19c3.66,0,6.62-2.97,6.62-6.62h-13.25c0,3.66,2.97,6.62,6.62,6.62Z"/><circle class="cls-10" cx="46.37" cy="22.21" r="1.24"/><circle class="cls-4" cx="46.37" cy="28.01" r="2.48"/><circle class="cls-9" cx="81.77" cy="22.21" r="1.24"/><circle class="cls-3" cx="81.77" cy="28.01" r="2.48"/><path id="path3687-4" class="cls-5" d="m82.14,18.96h-35.96l-.21-2.08c-.01-.12.02-.28.12-.35.11-.07.25.05.37.04,4.47-.15,8.65-3.12,13.18-2.36,1.08.18,2.01.58,2.8,1.33.1.1.29.29.29.29.41.41.57-.17.75-.69.35-1.14.61-6.34.68-6.34s.34,5.2.68,6.34c.18.53.34,1.1.75.69,0,0,.2-.2.29-.29.74-.82,1.74-1.19,2.8-1.33,4.47-.59,8.78,1.75,13.18,2.36.12,0,.27-.11.37-.04.1.07.13.22.12.35l-.21,2.08Z"/><polygon class="cls-8" points="64.12 14.28 42.34 62.57 16.78 6.35 6.35 6.35 6.35 99.55 16.52 99.55 16.52 33.4 29.42 61.85 33.98 71.89 36.07 76.5 42.33 90.31 45.47 83.33 48.6 76.34 49.97 73.29 64.08 41.82 73.55 62.7 61.36 62.7 60.98 63.54 59.62 66.6 56.61 73.29 78.35 73.29 82.91 83.33 90.26 99.55 99.55 99.55 99.55 92.22 64.12 14.28"/><path fill="currentColor" d="m140.72,37.54h-10.4l-1.91,5.45h-2.73l8.45-23.36h2.76l8.45,23.36h-2.73l-1.91-5.45Zm-.82-2.37l-4.36-12.58-4.4,12.58h8.76Z"/><path fill="currentColor" d="m163.88,36.84c0,3.62-2.84,6.15-6.39,6.15h-9.31v-23.36h8.49c3.58,0,6.46,2.57,6.46,6.23,0,2.49-1.36,4.36-3.43,5.3,2.45.82,4.17,2.84,4.17,5.68Zm-7.48-14.72h-5.76v7.98h5.76c2.34,0,4.24-1.75,4.24-4.05s-1.91-3.93-4.24-3.93Zm4.98,14.45c0-2.3-1.91-4.05-4.21-4.05h-6.54v7.98h6.54c2.3,0,4.21-1.64,4.21-3.93Z"/><path fill="currentColor" d="m167.62,31.31c0-6.62,5.37-11.99,11.99-11.99s11.99,5.37,11.99,11.99-5.33,11.99-11.99,11.99-11.99-5.37-11.99-11.99Zm21.49,0c0-5.3-4.2-9.5-9.5-9.5s-9.5,4.21-9.5,9.5,4.24,9.5,9.5,9.5,9.5-4.21,9.5-9.5Z"/><path fill="currentColor" d="m219.56,30.61v.7c0,6.62-5.37,11.99-11.99,11.99s-11.99-5.37-11.99-11.99,5.33-11.99,11.99-11.99c4.48,0,8.37,2.45,10.4,6.07l-2.14,1.21c-1.6-2.88-4.71-4.79-8.25-4.79-5.26,0-9.5,4.21-9.5,9.5s4.24,9.5,9.5,9.5c4.71,0,8.61-3.35,9.35-7.87h-9.38v-2.34h12.03Z"/><path fill="currentColor" d="m235.95,37.54h-10.4l-1.91,5.45h-2.73l8.45-23.36h2.76l8.45,23.36h-2.73l-1.91-5.45Zm-.82-2.37l-4.36-12.58-4.4,12.58h8.76Z"/><path fill="currentColor" d="m243.42,19.63h6.39c6.42,0,11.68,5.22,11.68,11.68s-5.26,11.68-11.68,11.68h-6.39v-23.36Zm6.35,20.87c5.18,0,9.23-3.93,9.23-9.19s-4.05-9.19-9.23-9.19h-3.89v18.38h3.89Z"/><path fill="currentColor" d="m277.8,37.54h-10.4l-1.91,5.45h-2.73l8.45-23.36h2.76l8.45,23.36h-2.73l-1.91-5.45Zm-.82-2.37l-4.36-12.58-4.4,12.58h8.76Z"/><path fill="currentColor" d="m317.86,19.63v23.36h-2.45v-18.38l-8.14,18.38h-2.06l-8.06-18.46v18.46h-2.49v-23.36h2.65l8.95,20.36,8.99-20.36h2.61Z"/><path fill="currentColor" d="m323.74,19.63h2.49v23.36h-2.49v-23.36Z"/><path fill="currentColor" d="m343.24,40.5v2.49h-11.17v-23.36h2.49v20.87h8.68Z"/><path fill="currentColor" d="m349.12,22.04v8.06h8.95v2.41h-8.95v8.06h10.28v2.41h-12.77v-23.36h12.77v2.41h-10.28Z"/><path fill="currentColor" d="m383.81,19.63v23.36h-2.34l-14.41-19.2v19.2h-2.49v-23.36h2.34l14.45,19.2v-19.2h2.45Z"/><path fill="currentColor" d="m401.68,37.54h-10.4l-1.91,5.45h-2.73l8.45-23.36h2.76l8.45,23.36h-2.73l-1.91-5.45Zm-.82-2.37l-4.36-12.58-4.4,12.58h8.76Z"/><path fill="currentColor" d="m146.66,79.41h-12.08l-1.99,6.7h-7.6l11.64-35.58h7.98l11.64,35.58h-7.6l-1.99-6.7Zm-1.89-6.52l-4.15-14.11-4.15,14.11h8.3Z"/><path fill="currentColor" d="m189.03,50.53v35.58h-7.33l-15.85-23.6v23.6h-7.12v-35.58h7.33l15.9,23.54v-23.54h7.06Z"/><path fill="currentColor" d="m194.26,68.32c0-10.08,7.44-18.27,16.6-18.27,6.41,0,11.97,3.97,14.72,9.79l-6.15,3.5c-1.56-3.38-4.74-5.63-8.57-5.63-5.44,0-9.6,4.63-9.6,10.62s4.15,10.61,9.6,10.61c3.83,0,7.01-2.25,8.57-5.63l6.15,3.5c-2.75,5.81-8.3,9.79-14.72,9.79-9.16,0-16.6-8.18-16.6-18.26Z"/><path fill="currentColor" d="m257.49,50.53v35.58h-7.06v-14.35h-13.15v14.35h-7.12v-35.58h7.12v14.29h13.15v-14.29h7.06Z"/><path fill="currentColor" d="m263.74,74.73v-24.2h7.12v22.71c0,3.62,2.75,6.41,6.31,6.41s6.36-2.79,6.36-6.41v-22.71h7.12v24.2c0,6.7-5.82,11.86-13.48,11.86s-13.42-5.16-13.42-11.86Z"/><path fill="currentColor" d="m327.14,50.53v35.58h-7.33l-15.85-23.6v23.6h-7.12v-35.58h7.33l15.9,23.54v-23.54h7.06Z"/><path fill="currentColor" d="m333.55,50.53h10.67c8.89,0,16.17,7.95,16.17,17.79s-7.28,17.79-16.17,17.79h-10.67v-35.58Zm10.62,28.64c5.12,0,9.11-4.69,9.11-10.85s-3.99-10.85-9.11-10.85h-3.5v21.71h3.5Z"/><path fill="currentColor" d="m365.84,50.53h7.12v35.58h-7.12v-35.58Z"/><path fill="currentColor" d="m397.32,79.41h-12.08l-1.99,6.7h-7.6l11.64-35.58h7.98l11.64,35.58h-7.6l-2-6.7Zm-1.89-6.52l-4.15-14.11-4.15,14.11h8.3Z"/></svg>